<?xml version="1.0" encoding="UTF-8"?>
<svg width="700pt" height="700pt" version="1.1" viewBox="40 -20 600 600" xmlns="http://www.w3.org/2000/svg" xmlns:xlink="http://www.w3.org/1999/xlink">
 <defs>
  <symbol id="n" overflow="visible">
   <path d="m29.312-1.75c-1.5117 0.78125-3.0898 1.3711-4.7344 1.7656-1.6367 0.40625-3.3398 0.60938-5.1094 0.60938-5.3125 0-9.5273-1.4844-12.641-4.4531-3.1055-2.9688-4.6562-7-4.6562-12.094s1.5508-9.125 4.6562-12.094c3.1133-2.9688 7.3281-4.4531 12.641-4.4531 1.7695 0 3.4727 0.19922 5.1094 0.59375 1.6445 0.39844 3.2227 0.99219 4.7344 1.7812v6.5938c-1.5312-1.0391-3.0391-1.8008-4.5156-2.2812-1.4805-0.48828-3.0391-0.73438-4.6719-0.73438-2.9375 0-5.2461 0.94531-6.9219 2.8281-1.6797 1.875-2.5156 4.4648-2.5156 7.7656 0 3.293 0.83594 5.8828 2.5156 7.7656 1.6758 1.875 3.9844 2.8125 6.9219 2.8125 1.6328 0 3.1914-0.23828 4.6719-0.71875 1.4766-0.48828 2.9844-1.2539 4.5156-2.2969z"/>
  </symbol>
  <symbol id="c" overflow="visible">
   <path d="m21.453-17.406c-0.67969-0.3125-1.3516-0.53906-2.0156-0.6875-0.65625-0.15625-1.3203-0.23438-1.9844-0.23438-1.9688 0-3.4844 0.63281-4.5469 1.8906-1.0547 1.2617-1.5781 3.0703-1.5781 5.4219v11.016h-7.6562v-23.922h7.6562v3.9219c0.97656-1.5625 2.1016-2.7031 3.375-3.4219 1.2812-0.71875 2.8125-1.0781 4.5938-1.0781 0.25 0 0.52344 0.011719 0.82812 0.03125 0.30078 0.023438 0.73438 0.070312 1.2969 0.14062z"/>
  </symbol>
  <symbol id="b" overflow="visible">
   <path d="m27.562-12.031v2.1875h-17.891c0.1875 1.793 0.83203 3.1367 1.9375 4.0312 1.1133 0.89844 2.6719 1.3438 4.6719 1.3438 1.6016 0 3.25-0.23438 4.9375-0.70312 1.6875-0.47656 3.4219-1.2031 5.2031-2.1719v5.8906c-1.8047 0.6875-3.6094 1.2031-5.4219 1.5469-1.8125 0.35156-3.6211 0.53125-5.4219 0.53125-4.3359 0-7.7031-1.0977-10.109-3.2969-2.3984-2.207-3.5938-5.2969-3.5938-9.2656 0-3.9062 1.1758-6.9727 3.5312-9.2031 2.3633-2.2383 5.6094-3.3594 9.7344-3.3594 3.7578 0 6.7695 1.1367 9.0312 3.4062 2.2578 2.2617 3.3906 5.2812 3.3906 9.0625zm-7.8594-2.5312c0-1.457-0.42969-2.6289-1.2812-3.5156-0.84375-0.89453-1.9492-1.3438-3.3125-1.3438-1.4922 0-2.6992 0.41797-3.625 1.25-0.91797 0.83594-1.4922 2.0391-1.7188 3.6094z"/>
  </symbol>
  <symbol id="a" overflow="visible">
   <path d="m14.391-10.766c-1.5938 0-2.793 0.27344-3.5938 0.8125-0.80469 0.54297-1.2031 1.3398-1.2031 2.3906 0 0.96875 0.32031 1.7305 0.96875 2.2812 0.64453 0.54297 1.5469 0.8125 2.7031 0.8125 1.4375 0 2.6445-0.51562 3.625-1.5469 0.98828-1.0312 1.4844-2.3203 1.4844-3.875v-0.875zm11.688-2.8906v13.656h-7.7031v-3.5469c-1.0312 1.4492-2.1875 2.5078-3.4688 3.1719s-2.8398 1-4.6719 1c-2.4805 0-4.4961-0.72266-6.0469-2.1719-1.543-1.4453-2.3125-3.3203-2.3125-5.625 0-2.8125 0.96094-4.8672 2.8906-6.1719 1.9375-1.3125 4.9688-1.9688 9.0938-1.9688h4.5156v-0.60938c0-1.207-0.48047-2.0938-1.4375-2.6562-0.94922-0.5625-2.4375-0.84375-4.4688-0.84375-1.6367 0-3.1562 0.16797-4.5625 0.5-1.4062 0.32422-2.7188 0.8125-3.9375 1.4688v-5.8281c1.6445-0.40625 3.2891-0.70703 4.9375-0.90625 1.6562-0.20703 3.3047-0.3125 4.9531-0.3125 4.3203 0 7.4375 0.85547 9.3438 2.5625 1.9141 1.6992 2.875 4.4609 2.875 8.2812z"/>
  </symbol>
  <symbol id="j" overflow="visible">
   <path d="m12.031-30.719v6.7969h7.875v5.4688h-7.875v10.141c0 1.1172 0.21875 1.8711 0.65625 2.2656 0.4375 0.38672 1.3125 0.57812 2.625 0.57812h3.9375v5.4688h-6.5625c-3.0234 0-5.1641-0.62891-6.4219-1.8906-1.2617-1.2578-1.8906-3.3984-1.8906-6.4219v-10.141h-3.7969v-5.4688h3.7969v-6.7969z"/>
  </symbol>
  <symbol id="i" overflow="visible">
   <path d="m19.953-20.422v-12.812h7.6875v33.234h-7.6875v-3.4531c-1.0547 1.4062-2.2148 2.4375-3.4844 3.0938-1.2734 0.65625-2.7422 0.98438-4.4062 0.98438-2.9492 0-5.3711-1.1719-7.2656-3.5156-1.8867-2.3438-2.8281-5.3594-2.8281-9.0469s0.94141-6.7031 2.8281-9.0469c1.8945-2.3438 4.3164-3.5156 7.2656-3.5156 1.6562 0 3.1172 0.33594 4.3906 1 1.2812 0.65625 2.4453 1.6836 3.5 3.0781zm-5.0469 15.484c1.6445 0 2.8945-0.59766 3.75-1.7969 0.86328-1.1953 1.2969-2.9297 1.2969-5.2031 0-2.2812-0.43359-4.0195-1.2969-5.2188-0.85547-1.1953-2.1055-1.7969-3.75-1.7969-1.625 0-2.8711 0.60156-3.7344 1.7969-0.85547 1.1992-1.2812 2.9375-1.2812 5.2188 0 2.2734 0.42578 4.0078 1.2812 5.2031 0.86328 1.1992 2.1094 1.7969 3.7344 1.7969z"/>
  </symbol>
  <symbol id="h" overflow="visible">
   <path d="m16.406-4.9375c1.6328 0 2.8828-0.59766 3.75-1.7969 0.86328-1.1953 1.2969-2.9297 1.2969-5.2031 0-2.2812-0.43359-4.0195-1.2969-5.2188-0.86719-1.1953-2.1172-1.7969-3.75-1.7969-1.6367 0-2.8906 0.60547-3.7656 1.8125-0.875 1.1992-1.3125 2.9336-1.3125 5.2031 0 2.2617 0.4375 3.9961 1.3125 5.2031 0.875 1.1992 2.1289 1.7969 3.7656 1.7969zm-5.0781-15.484c1.0508-1.3945 2.2188-2.4219 3.5-3.0781 1.2812-0.66406 2.7539-1 4.4219-1 2.9453 0 5.3672 1.1719 7.2656 3.5156 1.8945 2.3438 2.8438 5.3594 2.8438 9.0469s-0.94922 6.7031-2.8438 9.0469c-1.8984 2.3438-4.3203 3.5156-7.2656 3.5156-1.668 0-3.1406-0.33594-4.4219-1s-2.4492-1.6914-3.5-3.0781v3.4531h-7.6562v-33.234h7.6562z"/>
  </symbol>
  <symbol id="g" overflow="visible">
   <path d="m0.53125-23.922h7.6562l6.4219 16.234 5.4688-16.234h7.6562l-10.062 26.188c-1.0117 2.6641-2.1953 4.5234-3.5469 5.5781-1.3438 1.0625-3.1211 1.5938-5.3281 1.5938h-4.4219v-5.0156h2.3906c1.3008 0 2.2422-0.21094 2.8281-0.625 0.59375-0.40625 1.0547-1.1484 1.3906-2.2188l0.20312-0.65625z"/>
  </symbol>
  <symbol id="f" overflow="visible">
   <path d="m22.359-23.172v5.7969c-1.6367-0.67578-3.2148-1.1875-4.7344-1.5312-1.5234-0.34375-2.9609-0.51562-4.3125-0.51562-1.4609 0-2.543 0.18359-3.25 0.54688-0.69922 0.36719-1.0469 0.92188-1.0469 1.6719 0 0.61719 0.26562 1.0898 0.79688 1.4219 0.53125 0.32422 1.4883 0.5625 2.875 0.71875l1.3438 0.1875c3.9141 0.5 6.5508 1.3242 7.9062 2.4688 1.3516 1.1367 2.0312 2.9219 2.0312 5.3594 0 2.5547-0.94531 4.4688-2.8281 5.75-1.875 1.2812-4.6797 1.9219-8.4062 1.9219-1.5859 0-3.2188-0.125-4.9062-0.375s-3.4219-0.625-5.2031-1.125v-5.8125c1.5195 0.74219 3.082 1.2969 4.6875 1.6719 1.6016 0.36719 3.2344 0.54688 4.8906 0.54688 1.4883 0 2.6094-0.20312 3.3594-0.60938 0.75781-0.41406 1.1406-1.0312 1.1406-1.8438 0-0.6875-0.26172-1.1953-0.78125-1.5312-0.52344-0.33203-1.5586-0.59375-3.1094-0.78125l-1.3438-0.17188c-3.4062-0.42578-5.793-1.2109-7.1562-2.3594-1.3672-1.1562-2.0469-2.9102-2.0469-5.2656 0-2.5312 0.86719-4.4062 2.6094-5.625 1.7383-1.2266 4.3984-1.8438 7.9844-1.8438 1.4062 0 2.8828 0.10938 4.4375 0.32812 1.5508 0.21094 3.2383 0.54297 5.0625 1z"/>
  </symbol>
  <symbol id="m" overflow="visible">
   <path d="m3.4219-9.3125v-14.609h7.6875v2.3906c0 1.293-0.011719 2.918-0.03125 4.875-0.011719 1.9609-0.015625 3.2656-0.015625 3.9219 0 1.9297 0.046875 3.3125 0.14062 4.1562 0.10156 0.84375 0.28125 1.4609 0.53125 1.8438 0.3125 0.5 0.71875 0.88672 1.2188 1.1562 0.50781 0.27344 1.0938 0.40625 1.75 0.40625 1.5938 0 2.8438-0.60938 3.75-1.8281 0.91406-1.2266 1.375-2.9297 1.375-5.1094v-11.812h7.6406v23.922h-7.6406v-3.4531c-1.1562 1.3867-2.3828 2.4141-3.6719 3.0781-1.2812 0.66406-2.6992 1-4.25 1-2.7734 0-4.8828-0.84766-6.3281-2.5469-1.4375-1.6953-2.1562-4.1602-2.1562-7.3906z"/>
  </symbol>
  <symbol id="e" overflow="visible">
   <path d="m11.328-3.4531v12.547h-7.6562v-33.016h7.6562v3.5c1.0508-1.3945 2.2188-2.4219 3.5-3.0781 1.2812-0.66406 2.7539-1 4.4219-1 2.9453 0 5.3672 1.1719 7.2656 3.5156 1.8945 2.3438 2.8438 5.3594 2.8438 9.0469s-0.94922 6.7031-2.8438 9.0469c-1.8984 2.3438-4.3203 3.5156-7.2656 3.5156-1.668 0-3.1406-0.33594-4.4219-1s-2.4492-1.6914-3.5-3.0781zm5.0781-15.5c-1.6367 0-2.8906 0.60547-3.7656 1.8125-0.875 1.1992-1.3125 2.9336-1.3125 5.2031 0 2.2617 0.4375 3.9961 1.3125 5.2031 0.875 1.1992 2.1289 1.7969 3.7656 1.7969 1.6328 0 2.8828-0.59766 3.75-1.7969 0.86328-1.1953 1.2969-2.9297 1.2969-5.2031 0-2.2812-0.43359-4.0195-1.2969-5.2188-0.86719-1.1953-2.1172-1.7969-3.75-1.7969z"/>
  </symbol>
  <symbol id="d" overflow="visible">
   <path d="m3.6719-33.234h7.6562v33.234h-7.6562z"/>
  </symbol>
  <symbol id="l" overflow="visible">
   <path d="m3.6719-33.234h7.6562v18.094l8.7969-8.7812h8.8906l-11.688 10.969 12.594 12.953h-9.2656l-9.3281-9.9688v9.9688h-7.6562z"/>
  </symbol>
  <symbol id="k" overflow="visible">
   <path d="m3.6719-23.922h7.6562v23.922h-7.6562zm0-9.3125h7.6562v6.2344h-7.6562z"/>
  </symbol>
 </defs>
 <g>
  <path d="m149.27 403.28c4.0586-5.6562 5.707-12.691 4.582-19.562-1.1211-6.8711-4.9219-13.016-10.566-17.09l5.1016-7.0977c2.8242-3.9219 1.9297-9.3906-1.9961-12.215-3.9219-2.8203-9.3906-1.9258-12.215 1.9961l-5.1016 7.0977c-5.6523-4.0547-12.688-5.6992-19.555-4.5781-6.8633 1.1211-13.008 4.918-17.078 10.562-4.0586 5.6484-5.707 12.68-4.582 19.543 1.1211 6.8633 4.9219 13.004 10.566 17.066l-5.1172 7.1055h-0.003906c-2.8203 3.9219-1.9258 9.3906 1.9961 12.215 3.9258 2.8203 9.3945 1.9297 12.215-1.9961l5.1094-7.1055c4.4453 3.2227 9.793 4.957 15.277 4.9531 1.4336-0.003906 2.8633-0.12109 4.2812-0.34766 6.8711-1.1016 13.023-4.8945 17.086-10.547zm-40.637-18.461h0.003906c-3.8086-2.8594-4.6328-8.2422-1.8477-12.109 2.7812-3.8633 8.1445-4.7969 12.066-2.0938l-10.211 14.211zm26.426 8.2422h0.003906c-1.3555 1.8828-3.4062 3.1406-5.6992 3.5-2.2852 0.41016-4.6445-0.14453-6.5078-1.5312l10.219-14.203v0.003906c1.8906 1.3555 3.1602 3.4062 3.5312 5.7031 0.375 2.293-0.18359 4.6445-1.543 6.5273z"/>
  <path d="m511.56 520.93c3.418 3.418 8.957 3.418 12.375 0l6.1953-6.1875v0.003906c6.668 6.4375 16.234 8.8828 25.176 6.4336 8.9414-2.4531 15.922-9.4336 18.375-18.375 2.4492-8.9414 0.003906-18.508-6.4336-25.176l6.1953-6.1875c1.6875-1.6289 2.6484-3.8711 2.668-6.2188 0.023437-2.3477-0.90234-4.6016-2.5625-6.2617-1.6562-1.6602-3.9141-2.582-6.2617-2.5625-2.3477 0.019531-4.5859 0.98047-6.2188 2.6719l-6.1953 6.1875v-0.003906c-5-4.7695-11.645-7.4336-18.559-7.4336-6.9102 0-13.559 2.6641-18.559 7.4336-4.9219 4.9219-7.6836 11.598-7.6836 18.559s2.7617 13.637 7.6836 18.559l-6.1953 6.1875c-3.4141 3.418-3.4141 8.957 0 12.371zm43.312-18.559c-3.457 3.3203-8.9141 3.3203-12.371 0l12.371-12.371c3.418 3.418 3.418 8.957 0 12.371zm-24.746-24.746 0.003906 0.003906c3.4141-3.418 8.9531-3.418 12.371 0l-12.371 12.371c-3.418-3.418-3.418-8.957 0-12.371z"/>
  <path d="m143.01 513.26c4.9297 4.9062 11.602 7.6602 18.559 7.6602 6.9531 0 13.625-2.7539 18.559-7.6602l6.1875 6.1875h-0.003906c3.4336 3.3125 8.8906 3.2656 12.266-0.10937s3.4258-8.832 0.10938-12.266l-6.1875-6.1953c6.6328-6.6289 9.2227-16.297 6.793-25.355-2.4258-9.0586-9.5039-16.137-18.562-18.562-9.0586-2.4297-18.727 0.16016-25.355 6.793l-6.1875-6.1875c-1.6289-1.6875-3.8711-2.6484-6.2188-2.668-2.3477-0.023437-4.6016 0.90234-6.2617 2.5625-1.6602 1.6562-2.582 3.9141-2.5625 6.2617s0.98047 4.5859 2.6719 6.2188l6.1875 6.1875-0.003906-0.003906c-4.9258 4.9258-7.6914 11.605-7.6875 18.57 0 6.9648 2.7695 13.645 7.6992 18.566zm12.363-12.383c-1.6445-1.6406-2.5664-3.8672-2.5664-6.1875 0-2.3242 0.92188-4.5508 2.5664-6.1914l12.383 12.383-0.003906-0.003906c-1.6406 1.6445-3.8672 2.5664-6.1914 2.5664-2.3203 0-4.5469-0.92188-6.1875-2.5664zm12.371-24.754c2.5039-2.5 6.2656-3.25 9.5352-1.8945 3.2695 1.3555 5.4023 4.543 5.4023 8.082 0.011718 2.3203-0.91016 4.5508-2.5547 6.1875l-12.371-12.371z"/>
  <path d="m451.98 183.75c5.3242 4.4883 12.207 6.6758 19.145 6.0898 6.9375-0.58984 13.355-3.9102 17.844-9.2305l6.6836 5.6445c3.6953 3.1172 9.2188 2.6523 12.336-1.043 3.1211-3.6953 2.6562-9.2188-1.0391-12.336l-6.6953-5.6445c5.8906-7.1875 7.543-16.949 4.3477-25.672-3.1992-8.7227-10.766-15.105-19.902-16.785-9.1367-1.6797-18.484 1.5938-24.57 8.6133l-6.6836-5.6367h-0.003906c-3.6914-3.1172-9.2148-2.6484-12.332 1.0469-3.1172 3.6914-2.6484 9.2148 1.0469 12.332l6.6836 5.6445c-4.4844 5.3203-6.6719 12.203-6.082 19.137 0.58594 6.9336 3.9062 13.352 9.2227 17.84zm11.289-13.371c-1.7773-1.4961-2.8867-3.6367-3.082-5.9492-0.19922-2.3164 0.53125-4.6133 2.0312-6.3867l13.371 11.277c-3.125 3.6797-8.6367 4.1328-12.32 1.0156zm16.18-28.789v0.003906c0.25-0.015625 0.5-0.015625 0.75 0 3.3984 0.003906 6.4844 1.9766 7.918 5.0586 1.4336 3.082 0.95312 6.7148-1.2305 9.3164l-13.371-11.277c1.4766-1.8008 3.6133-2.9336 5.9336-3.1445z"/>
  <path d="m586.25 17.5h-490c-4.832 0-8.75 3.918-8.75 8.75v35c0 2.3203 0.92188 4.5469 2.5625 6.1875s3.8672 2.5625 6.1875 2.5625h245v77.324c-5.3906-3.2617-11.344-5.4805-17.551-6.5469-0.14062-11.5-4.8047-22.488-12.98-30.578-8.1797-8.0898-19.215-12.633-30.719-12.645h-35c-4.832 0-8.75 3.918-8.75 8.75v17.5c0.015625 11.598 4.6289 22.719 12.828 30.918 8.2031 8.2031 19.324 12.816 30.922 12.832h35c2.3203 0 4.5469-0.92188 6.1875-2.5625 1.6406-1.6406 2.5625-3.8672 2.5625-6.1875 5.6406 1.4766 10.789 4.4141 14.938 8.5117l2.5625 2.5625v5.8555c-12.285 1.6055-23.926 6.4297-33.746 13.984-9.8164 7.5547-17.465 17.57-22.168 29.031h-1.2266 0.003906c-12.691 0.015625-24.855 5.0625-33.828 14.035s-14.02 21.137-14.035 33.828v9.8867c-7.8867 3.9922-14.512 10.09-19.145 17.617-4.6328 7.5273-7.0938 16.191-7.1055 25.031v5.8789c-10.078 2.5664-18.48 9.5-22.918 18.902-4.4336 9.4062-4.4336 20.305 0 29.707 4.4375 9.4062 12.84 16.34 22.918 18.906v5.8789c0.027344 8.8281 2.4922 17.477 7.125 24.988 4.6289 7.5156 11.25 13.602 19.125 17.59v9.8867c0.015625 12.691 5.0625 24.855 14.035 33.828s21.137 14.02 33.828 14.035h1.2266-0.003906c6.9414 17.324 20.543 31.137 37.758 38.348 17.215 7.207 36.598 7.207 53.812 0 17.215-7.2109 30.816-21.023 37.758-38.348h1.2266-0.003906c12.691-0.015625 24.855-5.0625 33.828-14.035s14.02-21.137 14.035-33.828v-9.8867c7.8867-3.9922 14.512-10.09 19.145-17.617 4.6328-7.5273 7.0938-16.191 7.1055-25.031v-5.8789c10.078-2.5664 18.48-9.5 22.918-18.902 4.4336-9.4062 4.4336-20.305 0-29.707-4.4375-9.4062-12.84-16.34-22.918-18.906v-5.8438c-0.019531-8.832-2.4805-17.488-7.1133-25.012-4.6328-7.5195-11.258-13.609-19.137-17.602v-9.8867c-0.015625-12.691-5.0625-24.855-14.035-33.828s-21.137-14.02-33.828-14.035h-1.2266 0.003906c-4.7031-11.465-12.348-21.48-22.168-29.035-9.8203-7.5547-21.461-12.383-33.746-13.988v-105.73h227.5c9.3789 0 18.043-5.0039 22.734-13.125 4.6875-8.1211 4.6875-18.129 0-26.25-4.6914-8.1211-13.355-13.125-22.734-13.125zm-280 132.55h-26.25c-6.9609 0-13.641-2.7656-18.562-7.6875-4.9219-4.9258-7.6875-11.602-7.6875-18.562v-8.75h26.25c6.9609 0 13.641 2.7656 18.562 7.6875 4.9219 4.9219 7.6875 11.602 7.6875 18.562zm-105 208.7c0-4.6406 1.8438-9.0938 5.125-12.375s7.7344-5.125 12.375-5.125h63.551c-3.0664 11.465-3.0664 23.535 0 35h-63.551c-4.6406 0-9.0938-1.8438-12.375-5.125s-5.125-7.7344-5.125-12.375zm201.25 0c0 13.926-5.5312 27.277-15.375 37.125-9.8477 9.8438-23.199 15.375-37.125 15.375s-27.277-5.5312-37.125-15.375c-9.8438-9.8477-15.375-23.199-15.375-37.125s5.5312-27.277 15.375-37.125c9.8477-9.8438 23.199-15.375 37.125-15.375 13.918 0.015625 27.266 5.5508 37.109 15.391 9.8398 9.8438 15.375 23.191 15.391 37.109zm-52.5 166.25c-18.73-0.082031-36.023-10.066-45.457-26.25h90.957c-9.4414 16.195-26.754 26.184-45.5 26.25zm96.25-74.113c-0.007812 8.0508-3.2109 15.77-8.9023 21.461s-13.41 8.8945-21.461 8.9023h-131.77c-8.0508-0.007812-15.77-3.2109-21.461-8.9023s-8.8945-13.41-8.9023-21.461v-4.8477c1.3555 0.11328 2.7305 0.21094 4.1133 0.21094h184.27c1.3828 0 2.7578-0.097656 4.1133-0.21094zm26.25-52.5c-0.007812 8.0508-3.2109 15.77-8.9023 21.461s-13.41 8.8945-21.461 8.9023h-184.27c-8.0508-0.007812-15.77-3.2109-21.461-8.9023s-8.8945-13.41-8.9023-21.461v-4.6367h61.969c8.1992 14.25 21.168 25.148 36.613 30.781 15.449 5.6289 32.387 5.6289 47.836 0 15.445-5.6328 28.414-16.531 36.613-30.781h61.969zm26.25-39.637c0 4.6406-1.8438 9.0938-5.125 12.375s-7.7344 5.125-12.375 5.125h-63.551c3.0664-11.465 3.0664-23.535 0-35h63.551c4.6406 0 9.0938 1.8438 12.375 5.125s5.125 7.7344 5.125 12.375zm-26.25-35h-61.969c-8.1992-14.25-21.168-25.148-36.613-30.781-15.449-5.6289-32.387-5.6289-47.836 0-15.445 5.6328-28.414 16.531-36.613 30.781h-61.969v-4.6367c0.007812-8.0508 3.2109-15.77 8.9023-21.461s13.41-8.8945 21.461-8.9023h184.27c8.0508 0.007812 15.77 3.2109 21.461 8.9023s8.8945 13.41 8.9023 21.461zm-26.25-57.137v4.8477c-1.3555-0.11328-2.7305-0.21094-4.1133-0.21094h-184.27c-1.3828 0-2.7578 0.097656-4.1133 0.21094v-4.8477c0.007812-8.0508 3.2109-15.77 8.9023-21.461s13.41-8.8945 21.461-8.9023h131.77c8.0508 0.007812 15.77 3.2109 21.461 8.9023s8.8945 13.41 8.9023 21.461zm-50.75-47.863h-90.957c6.1719-10.695 15.914-18.875 27.516-23.102 11.602-4.2266 24.324-4.2266 35.926 0 11.605 4.2266 21.348 12.406 27.516 23.102zm-290.5-183.75h456.61c-1.0352 2.8008-1.582 5.7617-1.6094 8.75 0.027344 2.9883 0.57422 5.9492 1.6094 8.75h-456.61zm481.25 17.5c-3.5391 0-6.7305-2.1328-8.082-5.4023-1.3555-3.2695-0.60938-7.0312 1.8945-9.5352s6.2656-3.25 9.5352-1.8945c3.2695 1.3516 5.4023 4.543 5.4023 8.082 0 2.3203-0.92188 4.5469-2.5625 6.1875s-3.8672 2.5625-6.1875 2.5625z"/>
  <path d="m192.5 201.25h17.5v17.5h-17.5z"/>
  <path d="m166.25 262.5h17.5v17.5h-17.5z"/>
  <path d="m113.75 227.5h17.5v17.5h-17.5z"/>
  <path d="m560 306.25h17.5v17.5h-17.5z"/>
  <path d="m525 271.25h17.5v17.5h-17.5z"/>
 </g>
</svg>
